<?xml version="1.0" encoding="UTF-8" standalone="no"?>
<!DOCTYPE svg PUBLIC "-//W3C//DTD SVG 1.1//EN" "http://www.w3.org/Graphics/SVG/1.1/DTD/svg11.dtd">
<svg version="1.1" xmlns="http://www.w3.org/2000/svg" xmlns:xlink="http://www.w3.org/1999/xlink" preserveAspectRatio="xMidYMid meet" viewBox="0 0 640 640" width="256" height="256"><defs><path d="M122.06 187.3C115.4 187.3 110 181.9 110 175.24C110 164.19 110 143.1 110 132.06C110 125.4 115.4 120 122.06 120C167.08 120 290.07 120 335.09 120C341.75 120 347.15 125.4 347.15 132.06C347.15 143.1 347.15 164.19 347.15 175.24C347.15 181.9 341.75 187.3 335.09 187.3C290.07 187.3 167.08 187.3 122.06 187.3Z" id="b2uVpqniiO"></path><linearGradient id="gradientj1IURayB9W" gradientUnits="userSpaceOnUse" x1="110" y1="153.65" x2="342.28" y2="153.65"><stop style="stop-color: #bb92f1;stop-opacity: 1" offset="0%"></stop><stop style="stop-color: #72dccf;stop-opacity: 1" offset="100%"></stop></linearGradient><path d="M415.85 231.24C424.9 231.24 432.24 238.58 432.24 247.63C432.24 257.81 432.24 271.97 432.24 282.15C432.24 291.2 424.9 298.54 415.85 298.54C354.68 298.54 187.55 298.54 126.38 298.54C117.33 298.54 110 291.2 110 282.15C110 271.97 110 257.81 110 247.63C110 238.58 117.33 231.24 126.38 231.24C187.55 231.24 354.68 231.24 415.85 231.24Z" id="c19Qc8NmrU"></path><linearGradient id="gradientahU85vB59" gradientUnits="userSpaceOnUse" x1="333.96" y1="270.11" x2="110" y2="270.11"><stop style="stop-color: #e89292;stop-opacity: 1" offset="0%"></stop><stop style="stop-color: #ddd88a;stop-opacity: 1" offset="100%"></stop></linearGradient><path d="M508.64 344.82C520.44 344.82 530 354.38 530 366.17C530 375.36 530 381.57 530 390.76C530 402.55 520.44 412.12 508.64 412.12C428.91 412.12 211.08 412.12 131.35 412.12C119.56 412.12 110 402.55 110 390.76C110 381.57 110 375.36 110 366.17C110 354.38 119.56 344.82 131.35 344.82C211.08 344.82 428.91 344.82 508.64 344.82Z" id="l8NZQ9XWn"></path><linearGradient id="gradientbLimOxu8g" gradientUnits="userSpaceOnUse" x1="110" y1="378.47" x2="456.15" y2="378.47"><stop style="stop-color: #fbdeba;stop-opacity: 1" offset="0%"></stop><stop style="stop-color: #c795cb;stop-opacity: 1" offset="100%"></stop></linearGradient><path d="M280.11 452.7C285.14 452.7 289.22 456.78 289.22 461.81C289.22 473.45 289.22 499.25 289.22 510.88C289.22 515.92 285.14 520 280.11 520C246.09 520 153.13 520 119.11 520C114.08 520 110 515.92 110 510.88C110 499.25 110 473.45 110 461.81C110 456.78 114.08 452.7 119.11 452.7C153.13 452.7 246.09 452.7 280.11 452.7Z" id="b7tjnwdf3h"></path><linearGradient id="gradientaG5h8RO8S" gradientUnits="userSpaceOnUse" x1="110" y1="486.35" x2="289.22" y2="486.35"><stop style="stop-color: #b5f181;stop-opacity: 1" offset="0%"></stop><stop style="stop-color: #e0f24e;stop-opacity: 1" offset="100%"></stop></linearGradient></defs><g><g><g><use xlink:href="#b2uVpqniiO" opacity="1" fill="url(#gradientj1IURayB9W)"></use></g><g><use xlink:href="#c19Qc8NmrU" opacity="1" fill="url(#gradientahU85vB59)"></use></g><g><use xlink:href="#l8NZQ9XWn" opacity="1" fill="url(#gradientbLimOxu8g)"></use></g><g><use xlink:href="#b7tjnwdf3h" opacity="1" fill="url(#gradientaG5h8RO8S)"></use></g></g></g></svg>